<svg width="28" height="44" viewBox="0 0 28 44" fill="none" xmlns="http://www.w3.org/2000/svg">
<path d="M7.76562 39.0469C8.48438 38.6094 9.09896 38.151 9.60938 37.6719C10.1302 37.1927 10.5573 36.6615 10.8906 36.0781C11.224 35.5052 11.4688 34.8646 11.625 34.1562C11.7812 33.4375 11.8594 32.625 11.8594 31.7188V10.5781H16.8125V30.8281C16.8125 31.9115 16.7656 32.901 16.6719 33.7969C16.5781 34.6823 16.4219 35.4948 16.2031 36.2344C15.9948 36.9844 15.7083 37.6719 15.3438 38.2969C14.9896 38.9219 14.5469 39.5156 14.0156 40.0781C13.4948 40.6406 12.875 41.1823 12.1562 41.7031C11.4479 42.224 10.625 42.75 9.6875 43.2812L7.76562 39.0469Z" fill="#0A0A0A"/>
<path d="M0.03125 12.7188C0.03125 10.875 0.369792 9.1875 1.04688 7.65625C1.72396 6.125 2.67188 4.8125 3.89062 3.71875C5.11979 2.61458 6.58854 1.76042 8.29688 1.15625C10.0156 0.552083 11.9167 0.25 14 0.25C16.0729 0.25 17.9688 0.552083 19.6875 1.15625C21.4062 1.76042 22.875 2.61458 24.0938 3.71875C25.3229 4.8125 26.276 6.125 26.9531 7.65625C27.6302 9.1875 27.9688 10.875 27.9688 12.7188C27.9688 14.5729 27.6302 16.276 26.9531 17.8281C26.276 19.3698 25.3229 20.6979 24.0938 21.8125C22.875 22.9271 21.4062 23.7969 19.6875 24.4219C17.9688 25.0365 16.0729 25.3438 14 25.3438C11.9167 25.3438 10.0156 25.0365 8.29688 24.4219C6.58854 23.7969 5.11979 22.9271 3.89062 21.8125C2.67188 20.6979 1.72396 19.3698 1.04688 17.8281C0.369792 16.276 0.03125 14.5729 0.03125 12.7188ZM4.98438 12.7188C4.98438 13.9792 5.20833 15.1146 5.65625 16.125C6.11458 17.1354 6.74479 18 7.54688 18.7188C8.35938 19.4271 9.3125 19.974 10.4062 20.3594C11.5104 20.7448 12.7083 20.9375 14 20.9375C15.2917 20.9375 16.4844 20.7448 17.5781 20.3594C18.6823 19.974 19.6354 19.4271 20.4375 18.7188C21.2396 18 21.8698 17.1354 22.3281 16.125C22.7865 15.1146 23.0156 13.9792 23.0156 12.7188C23.0156 11.4583 22.7865 10.3281 22.3281 9.32812C21.8698 8.32812 21.2396 7.48438 20.4375 6.79688C19.6354 6.09896 18.6823 5.56771 17.5781 5.20312C16.4844 4.83854 15.2917 4.65625 14 4.65625C12.7083 4.65625 11.5104 4.83854 10.4062 5.20312C9.3125 5.56771 8.35938 6.09896 7.54688 6.79688C6.74479 7.48438 6.11458 8.32812 5.65625 9.32812C5.20833 10.3281 4.98438 11.4583 4.98438 12.7188Z" fill="#0A0A0A"/>
</svg>
