<svg width="32" height="51" viewBox="0 0 32 51" fill="none" xmlns="http://www.w3.org/2000/svg">
<path d="M9.76562 46.0469C10.4844 45.6094 11.099 45.151 11.6094 44.6719C12.1302 44.1927 12.5573 43.6615 12.8906 43.0781C13.224 42.5052 13.4688 41.8646 13.625 41.1562C13.7812 40.4375 13.8594 39.625 13.8594 38.7188V17.5781H18.8125V37.8281C18.8125 38.9115 18.7656 39.901 18.6719 40.7969C18.5781 41.6823 18.4219 42.4948 18.2031 43.2344C17.9948 43.9844 17.7083 44.6719 17.3438 45.2969C16.9896 45.9219 16.5469 46.5156 16.0156 47.0781C15.4948 47.6406 14.875 48.1823 14.1562 48.7031C13.4479 49.224 12.625 49.75 11.6875 50.2812L9.76562 46.0469Z" fill="#0A0A0A"/>
<path d="M2.03125 19.7188C2.03125 17.875 2.36979 16.1875 3.04688 14.6562C3.72396 13.125 4.67188 11.8125 5.89062 10.7188C7.11979 9.61458 8.58854 8.76042 10.2969 8.15625C12.0156 7.55208 13.9167 7.25 16 7.25C18.0729 7.25 19.9688 7.55208 21.6875 8.15625C23.4062 8.76042 24.875 9.61458 26.0938 10.7188C27.3229 11.8125 28.276 13.125 28.9531 14.6562C29.6302 16.1875 29.9688 17.875 29.9688 19.7188C29.9688 21.5729 29.6302 23.276 28.9531 24.8281C28.276 26.3698 27.3229 27.6979 26.0938 28.8125C24.875 29.9271 23.4062 30.7969 21.6875 31.4219C19.9688 32.0365 18.0729 32.3438 16 32.3438C13.9167 32.3438 12.0156 32.0365 10.2969 31.4219C8.58854 30.7969 7.11979 29.9271 5.89062 28.8125C4.67188 27.6979 3.72396 26.3698 3.04688 24.8281C2.36979 23.276 2.03125 21.5729 2.03125 19.7188ZM6.98438 19.7188C6.98438 20.9792 7.20833 22.1146 7.65625 23.125C8.11458 24.1354 8.74479 25 9.54688 25.7188C10.3594 26.4271 11.3125 26.974 12.4062 27.3594C13.5104 27.7448 14.7083 27.9375 16 27.9375C17.2917 27.9375 18.4844 27.7448 19.5781 27.3594C20.6823 26.974 21.6354 26.4271 22.4375 25.7188C23.2396 25 23.8698 24.1354 24.3281 23.125C24.7865 22.1146 25.0156 20.9792 25.0156 19.7188C25.0156 18.4583 24.7865 17.3281 24.3281 16.3281C23.8698 15.3281 23.2396 14.4844 22.4375 13.7969C21.6354 13.099 20.6823 12.5677 19.5781 12.2031C18.4844 11.8385 17.2917 11.6562 16 11.6562C14.7083 11.6562 13.5104 11.8385 12.4062 12.2031C11.3125 12.5677 10.3594 13.099 9.54688 13.7969C8.74479 14.4844 8.11458 15.3281 7.65625 16.3281C7.20833 17.3281 6.98438 18.4583 6.98438 19.7188Z" fill="#0A0A0A"/>
</svg>
