<?xml version="1.0" standalone="no"?>
<!DOCTYPE svg PUBLIC "-//W3C//DTD SVG 20010904//EN"
 "http://www.w3.org/TR/2001/REC-SVG-20010904/DTD/svg10.dtd">
<svg version="1.0" xmlns="http://www.w3.org/2000/svg"
 width="343.000000pt" height="343.000000pt" viewBox="0 0 343.000000 343.000000"
 preserveAspectRatio="xMidYMid meet">
<metadata>
Created by potrace 1.14, written by Peter Selinger 2001-2017
</metadata>
<g transform="translate(0.000000,343.000000) scale(0.100000,-0.100000)"
fill="#000000" stroke="none">
<path d="M2510 3424 c0 -4 23 -30 52 -59 28 -28 59 -72 69 -96 18 -44 24 -133
13 -176 -9 -33 -133 -93 -191 -93 -87 0 -271 75 -456 184 -213 126 -404 159
-610 106 -55 -15 -204 -68 -242 -88 -131 -66 -302 -217 -347 -307 -27 -53 -62
-159 -72 -216 -9 -51 -15 -81 -18 -84 -2 -1 -22 -12 -45 -24 -52 -26 -79 -54
-104 -106 -35 -76 -44 -170 -20 -220 5 -11 19 -46 30 -78 11 -31 32 -75 47
-96 29 -44 29 -74 -1 -206 -9 -38 -18 -88 -21 -110 -3 -22 -7 -46 -9 -53 -3
-9 0 -10 13 -3 38 20 74 72 102 142 26 66 32 74 66 86 21 7 41 10 44 6 4 -5
15 -32 24 -62 39 -122 102 -175 265 -222 93 -27 240 -21 340 14 82 29 115 55
138 107 16 37 22 168 10 211 -6 23 -3 28 21 38 35 15 68 17 115 7 l38 -8 -8
-47 c-18 -109 3 -215 51 -260 13 -12 57 -34 97 -48 184 -64 427 -25 539 87 38
38 76 121 86 188 8 56 10 59 41 55 28 -5 28 -5 27 -75 -2 -150 32 -204 74
-115 61 130 87 275 62 341 -14 39 -7 32 34 -30 57 -85 67 -70 52 71 -16 146
-29 196 -72 268 -39 65 -41 73 -29 96 7 14 29 40 47 57 76 71 127 249 60 207
-14 -8 -9 8 21 66 38 75 60 171 40 171 -6 0 -31 -22 -56 -50 -50 -54 -69 -63
-61 -27 3 12 7 57 9 99 5 98 -12 152 -68 210 -59 62 -197 162 -197 142z
m-1059 -945 c208 -123 372 -164 675 -168 137 -2 195 8 276 49 76 37 108 28
142 -39 30 -58 45 -109 52 -179 l6 -69 -33 1 c-31 1 -35 5 -51 51 -9 27 -30
62 -47 77 -114 102 -493 70 -627 -54 -42 -39 -44 -39 -80 -28 -50 17 -131 16
-180 -2 l-40 -14 -35 35 c-100 101 -384 156 -554 106 -92 -26 -145 -97 -145
-194 0 -17 -3 -31 -7 -31 -5 0 -17 -3 -28 -6 -18 -5 -20 0 -19 56 1 33 7 66
13 73 24 30 41 90 41 146 0 50 4 65 28 93 79 95 146 126 259 119 13 0 35 -14
50 -31 31 -36 48 -38 64 -7 27 52 37 56 114 52 59 -3 82 -10 126 -36z"/>
<path d="M686 1618 c1 -122 -3 -163 -27 -278 -15 -74 -37 -166 -49 -205 -23
-80 -19 -119 16 -141 22 -15 26 -15 49 0 14 9 25 20 25 25 0 5 7 12 16 15 14
5 15 0 9 -41 -4 -27 -9 -60 -10 -75 -3 -28 -20 -47 -82 -90 -44 -31 -44 -64 0
-74 17 -4 48 -8 67 -9 l35 -1 0 -84 c0 -121 16 -139 62 -70 39 60 53 40 59
-91 6 -134 11 -166 30 -173 17 -6 50 41 59 86 11 50 24 40 23 -17 -2 -63 8
-77 56 -73 26 3 30 -1 45 -46 19 -54 71 -122 107 -138 28 -13 69 9 86 48 18
39 25 28 20 -31 -5 -69 3 -102 27 -110 18 -5 71 12 71 24 0 3 10 22 21 41 l22
35 14 -47 c15 -51 52 -88 89 -88 25 0 60 31 70 62 8 27 22 22 29 -12 6 -29 30
-50 57 -50 7 0 24 18 38 40 26 41 34 47 45 30 8 -13 72 -40 96 -40 22 0 31 13
36 53 5 49 18 52 49 10 67 -88 88 -85 125 20 11 31 16 36 34 30 67 -23 111 10
140 109 18 57 35 84 35 55 0 -16 31 -47 48 -47 20 0 32 38 39 120 3 44 9 83
13 85 4 2 13 -7 20 -20 12 -22 15 -23 40 -10 35 18 67 121 69 219 1 37 2 38
19 23 24 -22 61 -22 69 0 9 22 9 115 0 211 -6 69 -5 73 13 67 11 -3 29 -1 40
5 18 9 20 17 14 58 -5 42 -36 188 -50 235 -5 14 1 17 40 17 51 0 76 7 76 22 0
6 -17 30 -39 53 -45 48 -69 134 -77 267 -5 87 -16 126 -40 135 -25 9 -34 -8
-70 -132 -41 -142 -62 -189 -115 -249 -42 -48 -97 -91 -105 -84 -2 3 3 21 11
41 30 71 -12 89 -86 36 -24 -17 -49 -37 -54 -44 -21 -25 -88 -65 -111 -65 -13
0 -59 18 -102 40 -44 22 -90 43 -103 45 -77 16 -180 -3 -204 -38 -13 -18 -14
-18 -54 2 -63 33 -126 26 -244 -27 -59 -25 -59 -25 -93 -7 -19 10 -52 39 -72
64 -81 98 -90 107 -102 94 -7 -6 -13 -47 -14 -95 -2 -47 -6 -89 -9 -96 -18
-28 -78 9 -160 100 -71 78 -82 100 -123 265 -38 152 -39 153 -63 153 -16 0
-17 -13 -15 -142z m1052 -490 c26 -6 59 -19 74 -30 14 -10 31 -18 37 -18 30 0
-4 -47 -52 -72 -31 -16 -62 -22 -122 -23 -84 -2 -110 5 -161 41 -17 13 -35 20
-39 16 -4 -4 -1 5 6 21 7 15 14 25 17 22 3 -3 12 1 20 8 50 41 137 56 220 35z"/>
</g>
</svg>
